<?xml version="1.0" encoding="utf-8"?>
<!-- Generator: Adobe Illustrator 25.0.0, SVG Export Plug-In . SVG Version: 6.00 Build 0)  -->
<svg version="1.1" id="Capa_1" xmlns="http://www.w3.org/2000/svg" xmlns:xlink="http://www.w3.org/1999/xlink" x="0px" y="0px"
	 viewBox="0 0 442.5 512" style="enable-background:new 0 0 442.5 512;" xml:space="preserve">
<style type="text/css">
	.st0{fill:#FFFFFF;}
</style>
<g>
	<path class="st0" d="M342.99,0c17.53,7.98,21.92,27.99,9.83,46.59c1.63,0.1,3.02,0.26,4.42,0.26c15.5,0.02,31-0.12,46.49,0.05
		c20.35,0.21,35.6,12.15,38.57,31.99c1.32,8.81-0.2,18.27-1.69,27.22c-6.76,40.7-20.84,78.68-43.41,113.37
		c-18.94,29.1-42.39,53.82-71.03,73.59c-3.04,2.1-5.7,5.06-7.8,8.13c-12.42,18.1-28.86,30.74-49.97,36.91
		c-4.53,1.32-6.49,2.99-6.22,8.04c0.54,10.05-3.43,18.43-10.98,25.17c-1.2,1.07-2.32,2.99-2.34,4.53
		c-0.17,15.49-0.1,30.97-0.1,47.27c1.98,0,3.73,0,5.48,0c13.5,0,26.99,0,40.49,0c22.52,0.01,34.67,11.8,35.23,34.18
		c0.02,0.81,0.1,1.62,0.17,2.76c3.95,0.25,7.74,0.3,11.47,0.76c8.78,1.09,15.55,7.32,16.61,16.12c0.71,5.9,0.67,11.99,0.12,17.92
		c-0.85,9.26-7.25,14.09-15.35,17.14c-35,0-70.01,0-105.01,0c-3.34-2.49-6.25-5.28-4.51-9.96c1.7-4.56,5.59-5.24,9.85-5.05
		c1,0.05,2,0.01,3,0.01c29.31,0,58.62,0,87.93,0c8.84,0,9.54-0.72,9.55-9.73c0-0.67,0-1.33,0-2c0-9.21-0.67-9.88-9.95-9.88
		c-72.78,0-145.55,0-218.33,0c-13.54,0-13.54,0-13.49,13.29c0.03,7.22,1.12,8.31,8.43,8.32c30.64,0.01,61.29,0.02,91.93-0.02
		c4.2-0.01,8.09,0.38,9.89,4.98c1.84,4.72-1.16,7.42-4.29,10.04c-35,0-70.01,0-105.01,0c-11.79-3.94-16.8-12.28-15.98-24.48
		c0.18-2.65-0.07-5.34,0.1-7.99c0.65-10.29,7.66-17.67,17.94-18.82c3.43-0.38,6.9-0.4,10.49-0.59c0.34-4.24,0.27-8.27,1.05-12.13
		c3.07-15.07,15.45-24.7,31.84-24.85c14.16-0.12,28.33-0.03,42.49-0.03c1.81,0,3.62,0,6.13,0c0-4.57,0-8.84,0-13.1
		c0-11,0.11-22-0.1-32.99c-0.04-1.89-0.87-4.35-2.22-5.55c-8.06-7.14-11.61-16.09-11.29-26.63c0.11-3.55-0.87-5.14-4.54-6.19
		c-21.27-6.07-38.2-18.35-50.84-36.55c-1.3-1.87-2.91-3.71-4.79-4.95C61.64,256.49,24.76,198.8,7.14,128.03
		c-3.13-12.56-5.13-25.45-6.81-38.3c-2.9-22.1,13.69-41.77,36.2-42.62c17.64-0.67,35.32-0.21,52.98-0.26c0.97,0,1.93-0.09,4.41-0.21
		c-7.12-6.56-6.71-14.35-7.01-22.17C86.44,12.27,91.18,3.94,102.97,0C182.98,0,262.98,0,342.99,0z M325.54,52
		c-68.19,0-137.21,0-206.47,0c0,2.02-0.06,3.67,0.01,5.31c2.65,65.42,5.1,130.86,8.03,196.27c1.82,40.65,34.02,72.16,74.71,73.5
		c14.81,0.49,29.67,0.38,44.48-0.08c36.26-1.13,68.82-31.65,71.67-67.78c1.78-22.57,2.16-45.25,3.18-67.88
		c0.26-5.83,0.05-11.74,1.07-17.43c0.46-2.57,2.99-5.84,5.34-6.68c2.06-0.74,5.78,0.84,7.64,2.59c1.46,1.37,1.7,4.59,1.62,6.96
		c-0.45,14.32-1.15,28.63-1.75,42.95c-0.07,1.65-0.01,3.31-0.01,6.2c35.17-38.78,54.32-83.19,61.58-133.31c-19.13,0-37.67,0-56.65,0
		c0,2.42,0.07,4.41-0.01,6.39c-0.53,12.98-0.98,25.97-1.68,38.95c-0.3,5.69-3.24,8.47-7.92,8.22c-4.49-0.25-7.18-3.6-6.97-9.19
		c0.65-17.15,1.57-34.29,2.06-51.44C325.8,74.44,325.54,63.33,325.54,52z M222.72,36.61c36.14,0,72.27,0,108.41,0
		c12.69,0,12.69,0,12.67-12.66C343.78,16,342.8,15,334.97,15c-73.6,0-147.21,0-220.81,0c-12.14,0-12.14,0-12.13,12.11
		c0,8.8,0.72,9.5,9.79,9.5C148.78,36.61,185.75,36.61,222.72,36.61z M111.03,227.99c-1.85-45.61-3.67-90.46-5.5-135.38
		c-19.88,0-39.19,0-58.51,0C47.67,131.58,82.18,204.79,111.03,227.99z M114.27,272.41c-0.82-6.7-1.32-12.49-2.32-18.2
		c-0.39-2.22-1.41-4.78-3-6.28c-45.77-43.29-70.17-97.04-77.97-158.91c-1.14-9.04,1.56-11.83,10.69-11.84
		c19.16-0.02,38.32-0.01,57.48-0.01c1.78,0,3.55,0,5.84,0c-0.29-5.38-0.54-10.11-0.79-14.91c-1.07-0.17-1.71-0.36-2.35-0.36
		c-21.33-0.01-42.66-0.2-63.98,0.08c-14.3,0.19-24.39,12.17-22.68,26.45c5.43,45.51,19.89,87.79,45.42,126.05
		C75.2,236.37,92.69,255.62,114.27,272.41z M341.46,77.16c1.82,0,3.61,0,5.4,0c18.16,0,36.32-0.01,54.48,0.01
		c9.39,0.01,12.03,2.97,10.84,12.15c-0.62,4.78-1.24,9.57-2.07,14.33c-9.62,55.05-33.01,102.98-73.52,142.05
		c-0.84,0.81-2.17,1.63-2.28,2.56c-0.86,6.92-1.48,13.87-2.25,21.69c21.03-17.04,38.03-36.28,52.18-58.07
		c24.18-37.23,38.24-78.1,43.6-122.05c2.01-16.47-7.98-27.85-24.6-27.94c-19.16-0.1-38.32-0.03-57.48-0.01
		c-1.28,0-2.57,0.2-4.29,0.35C341.46,67.07,341.46,71.69,341.46,77.16z M314.58,460.16c1.38-14.45-4.73-22.01-17.52-22.03
		c-49.47-0.05-98.94-0.05-148.4,0c-12.98,0.01-20,9.15-17.02,22.02C192.5,460.16,253.41,460.16,314.58,460.16z M233.39,423.11
		c0-15.13,0-29.49,0-43.8c-7.25,0-14.14,0-21,0c0,14.72,0,29.08,0,43.8c5.47,0,10.6,0,15.73,0
		C229.76,423.11,231.41,423.11,233.39,423.11z M198.94,342.38c-2.01,12.88,5.04,21.42,17.42,21.57c5,0.06,10,0.19,14.99-0.07
		c11.15-0.59,18.03-10.36,15.14-21.5C230.76,342.38,214.98,342.38,198.94,342.38z"/>
</g>
</svg>
