<?xml version="1.0" encoding="utf-8"?>
<!-- Generator: Adobe Illustrator 25.0.0, SVG Export Plug-In . SVG Version: 6.00 Build 0)  -->
<svg version="1.1" id="Capa_1" xmlns="http://www.w3.org/2000/svg" xmlns:xlink="http://www.w3.org/1999/xlink" x="0px" y="0px"
	 viewBox="0 0 595.28 841.89" style="enable-background:new 0 0 595.28 841.89;" xml:space="preserve">
<style type="text/css">
	.st0{fill:#FFFFFF;}
</style>
<g>
	<path class="st0" d="M5.29,336.76c2.93,0,5.48,0,8.03,0c58.51,0,117.02,0.01,175.53,0c17.2,0,24.31-7.16,24.31-24.48
		c0.01-58.5,0-117,0-175.5c0-2.53,0-5.07,0-7.91c56.5,0,112.33,0,169.07,0c0,2.61,0,5.11,0,7.6c0,58.5,0,117,0,175.5
		c0,17.76,6.98,24.78,24.65,24.79c58.3,0.01,116.59,0,174.89,0c2.58,0,5.17,0,8.23,0c0,56.29,0,112.27,0,169.04
		c-2.58,0-5.1,0-7.61,0c-58.51,0-117.02,0-175.53,0c-17.67,0-24.63,7.01-24.63,24.8c-0.01,58.28,0,116.57,0,174.85
		c0,2.57,0,5.13,0,8.13c-56.42,0-112.41,0-169.07,0c0-2.76,0-5.29,0-7.82c0-58.5,0.01-117,0-175.5c0-17.32-7.1-24.46-24.32-24.46
		c-58.51-0.01-117.02,0-175.53,0c-2.55,0-5.09,0-8.02,0C5.29,449.43,5.29,393.62,5.29,336.76z"/>
</g>
</svg>
